<?xml version="1.0" encoding="UTF-8"?>
<svg id="Layer_1" xmlns="http://www.w3.org/2000/svg" version="1.1" viewBox="0 0 253 83.4">
  <!-- Generator: Adobe Illustrator 30.1.0, SVG Export Plug-In . SVG Version: 2.1.1 Build 136)  -->
  <defs>
    <style>
      .st0 {
        fill: gray;
        fill-rule: evenodd;
      }
    </style>
  </defs>
  <path class="st0" d="M130.3,24s19.4-20.9,52-18.8c24.2,1.5,14.1,22.8-7.8,28.1-20.7,5-45.3,4.6-80.1-.1-46.1-6.3-72.1.3-73.7,16-2.1,20,40.3,21.1,63.2,13.9-8.1,4.7-38.6,14.9-63.5,3.2C-7.9,53,13,23.7,52.4,22.2c29.4-1.1,57.8,7,95.5,7.9,38.3,1,53.6-19.6,32.6-21.4-27.1-2.3-50.2,15.3-50.2,15.3"/>
  <path d="M36.9,52.5l-1,3.6h-3.3l4.3-14h4.2l4.3,14h-3.4l-1.1-3.6h-4ZM40.4,50.1l-.9-3c-.2-.8-.5-1.9-.7-2.7h0c-.2.8-.4,1.9-.6,2.7l-.8,3h3.1Z"/>
  <rect x="47" y="41.3" width="3.2" height="14.7"/>
  <rect x="52.8" y="41.3" width="3.2" height="14.7"/>
  <path d="M61.8,43.1c0,.9-.7,1.6-1.7,1.6s-1.7-.7-1.6-1.6c0-.9.6-1.6,1.7-1.6s1.7.7,1.7,1.6M58.5,45.9h3.2v10.1h-3.2v-10.1Z"/>
  <path d="M70,56.1l-.2-1h0c-.7.8-1.7,1.2-2.9,1.2-2.1,0-3.3-1.5-3.3-3.1,0-2.6,2.4-3.9,6-3.9h0c0-.7-.3-1.5-1.9-1.5s-2.1.4-2.8.8l-.6-2c.7-.4,2.1-.9,4-.9,3.4,0,4.5,2,4.5,4.4v3.5c0,1,0,1.9.1,2.5h-2.9ZM69.6,51.3c-1.7,0-3,.4-3,1.6s.5,1.2,1.2,1.2,1.4-.5,1.6-1.2c0-.2,0-.4,0-.5v-1.1Z"/>
  <path d="M75.2,49.1c0-1.3,0-2.3,0-3.2h2.7v1.4h.2c.4-.6,1.5-1.6,3.1-1.6s3.6,1.4,3.6,4.4v6h-3.2v-5.6c0-1.3-.5-2.2-1.6-2.2s-1.4.6-1.6,1.2c0,.2-.1.5-.1.8v5.8h-3.2v-6.9Z"/>
  <path d="M95,55.8c-.6.2-1.6.5-2.8.5-3.3,0-5.4-2-5.4-5.2s2-5.4,5.8-5.4,1.8.1,2.4.4l-.5,2.3c-.4-.2-.9-.3-1.8-.3-1.7,0-2.7,1.2-2.7,2.8,0,1.9,1.2,2.8,2.8,2.8s1.3-.1,1.8-.3l.4,2.3Z"/>
  <path d="M99,52c.1,1.3,1.4,1.9,2.9,1.9s2-.1,2.8-.4l.4,2.1c-1,.4-2.3.6-3.7.6-3.5,0-5.4-2-5.4-5.2s1.6-5.4,5.1-5.4,4.5,2.5,4.5,5.1,0,1-.1,1.2h-6.6ZM102.7,49.8c0-.8-.3-2.1-1.8-2.1s-1.9,1.2-2,2.1h3.7Z"/>
  <path d="M112.1,56.1v-7.8h-1.3v-2.3h1.3v-.4c0-1.2.4-2.6,1.3-3.4.8-.7,1.9-1,2.8-1s1.2,0,1.7.2v2.4c-.4,0-.7-.1-1.1-.1-1,0-1.5.8-1.5,1.8v.5h2v2.3h-2v7.8h-3.2Z"/>
  <path d="M128.7,50.9c0,3.7-2.6,5.4-5.4,5.4s-5.3-1.9-5.3-5.2,2.2-5.4,5.4-5.4,5.2,2.1,5.2,5.2M121.3,51c0,1.7.7,3,2.1,3s2-1.2,2-3-.6-3-2-3-2.1,1.6-2.1,3"/>
  <path d="M130.7,49.3c0-1.5,0-2.5,0-3.3h2.7v1.9h.2c.5-1.5,1.8-2.1,2.7-2.1s.4,0,.7,0v3c-.2,0-.5,0-.9,0-1.2,0-2,.6-2.2,1.6,0,.2,0,.5,0,.7v5.1h-3.2v-6.8Z"/>
  <polygon points="151.2 50.1 146.1 50.1 146.1 53.5 151.8 53.5 151.8 56.1 142.9 56.1 142.9 42.1 151.5 42.1 151.5 44.7 146.1 44.7 146.1 47.6 151.2 47.6 151.2 50.1"/>
  <path d="M153.9,49.1c0-1.3,0-2.3,0-3.2h2.7v1.4h.2c.4-.6,1.5-1.6,3.1-1.6s3.6,1.4,3.6,4.4v6h-3.2v-5.6c0-1.3-.5-2.2-1.6-2.2s-1.4.6-1.6,1.2c0,.2-.1.5-.1.8v5.8h-3.2v-6.9Z"/>
  <path d="M168.5,52c.1,1.3,1.4,1.9,2.9,1.9s2-.1,2.8-.4l.4,2.1c-1,.4-2.3.6-3.7.6-3.5,0-5.4-2-5.4-5.2s1.6-5.4,5.1-5.4,4.5,2.5,4.5,5.1,0,1-.1,1.2h-6.6ZM172.3,49.8c0-.8-.3-2.1-1.8-2.1s-1.9,1.2-2,2.1h3.7Z"/>
  <path d="M177.1,49.3c0-1.5,0-2.5,0-3.3h2.7v1.9h.2c.5-1.5,1.8-2.1,2.7-2.1s.4,0,.7,0v3c-.2,0-.5,0-.9,0-1.2,0-2,.6-2.2,1.6,0,.2,0,.5,0,.7v5.1h-3.2v-6.8Z"/>
  <path d="M194.6,45.9c0,.6,0,1.5,0,3v5.7c0,1.9-.4,3.5-1.5,4.6-1.1,1-2.6,1.2-4.1,1.2s-2.7-.3-3.7-.8l.6-2.4c.6.4,1.8.8,3,.8s2.6-.8,2.6-2.7v-.7h0c-.6.9-1.6,1.3-2.7,1.3-2.5,0-4.3-2-4.3-5s2.1-5.3,4.6-5.3,2.3.6,2.8,1.4h0v-1.2h2.9ZM191.3,50c0-.2,0-.4,0-.6-.2-.8-.8-1.4-1.7-1.4s-2.1,1-2.1,2.9.7,2.7,2.1,2.7,1.5-.5,1.7-1.3c0-.2.1-.6.1-.8v-1.5Z"/>
  <path d="M199.4,45.9l1.5,5c.2.6.4,1.3.5,1.9h0c.1-.5.3-1.3.5-1.9l1.2-5h3.4l-2.4,6.7c-1.5,4-2.4,5.6-3.6,6.7-1.1,1-2.3,1.3-3.1,1.4l-.7-2.7c.4,0,.9-.2,1.4-.5.5-.2,1-.7,1.3-1.3.1-.1.2-.3.2-.5s0-.3-.1-.5l-3.7-9.3h3.5Z"/>
  <rect x="105.1" y="62.2" width="3.2" height="14"/>
  <path d="M111,69.3c0-1.3,0-2.3,0-3.2h2.7v1.4h.2c.4-.6,1.5-1.6,3.1-1.6s3.6,1.4,3.6,4.4v6h-3.2v-5.6c0-1.3-.5-2.2-1.6-2.2s-1.4.6-1.6,1.2c0,.2-.1.5-.1.8v5.8h-3.2v-6.9Z"/>
  <path d="M123.2,69.3c0-1.3,0-2.3,0-3.2h2.7v1.4h.2c.4-.6,1.5-1.6,3.1-1.6s3.6,1.4,3.6,4.4v6h-3.2v-5.6c0-1.3-.5-2.2-1.6-2.2s-1.4.6-1.6,1.2c0,.2-.1.5-.1.8v5.8h-3.2v-6.9Z"/>
  <path d="M145.5,71c0,3.7-2.6,5.4-5.4,5.4s-5.3-1.9-5.3-5.2,2.2-5.4,5.4-5.4,5.2,2.1,5.2,5.2M138.1,71.1c0,1.7.7,3,2.1,3s2-1.2,2-3-.6-3-2-3-2.1,1.6-2.1,3"/>
  <path d="M149.6,66l1.4,4.7c.3.8.4,1.7.6,2.5h0c.2-.8.3-1.6.6-2.5l1.3-4.7h3.3l-3.8,10.1h-3.2l-3.7-10.1h3.4Z"/>
  <path d="M163.9,76.2l-.2-1h0c-.7.8-1.7,1.2-2.9,1.2-2.1,0-3.3-1.5-3.3-3.1,0-2.6,2.4-3.9,6-3.9h0c0-.7-.3-1.5-1.9-1.5s-2.1.4-2.8.8l-.6-2c.7-.4,2.1-.9,4-.9,3.4,0,4.5,2,4.5,4.4v3.5c0,1,0,1.9.1,2.5h-2.9ZM163.5,71.4c-1.7,0-3,.4-3,1.6s.5,1.2,1.2,1.2,1.4-.5,1.6-1.2c0-.2,0-.4,0-.5v-1.1Z"/>
  <path d="M172.5,63.1v2.9h2.3v2.3h-2.3v3.7c0,1.2.3,1.8,1.2,1.8s.7,0,.9,0v2.4c-.4.2-1.1.3-2,.3s-1.9-.4-2.4-.9c-.6-.6-.9-1.6-.9-3v-4.1h-1.4v-2.3h1.4v-2.2l3.1-.7Z"/>
  <path d="M179.9,63.2c0,.9-.7,1.6-1.7,1.6s-1.7-.7-1.6-1.6c0-.9.6-1.6,1.7-1.6s1.7.7,1.7,1.6M176.6,66h3.2v10.1h-3.2v-10.1Z"/>
  <path d="M192.4,71c0,3.7-2.6,5.4-5.4,5.4s-5.3-1.9-5.3-5.2,2.2-5.4,5.4-5.4,5.2,2.1,5.2,5.2M185,71.1c0,1.7.7,3,2.1,3s2-1.2,2-3-.6-3-2-3-2.1,1.6-2.1,3"/>
  <path d="M194.3,69.3c0-1.3,0-2.3,0-3.2h2.7v1.4h.2c.4-.6,1.5-1.6,3.1-1.6s3.6,1.4,3.6,4.4v6h-3.2v-5.6c0-1.3-.5-2.2-1.6-2.2s-1.4.6-1.6,1.2c0,.2-.1.5-.1.8v5.8h-3.2v-6.9Z"/>
  <path d="M205.3,78.6c.6-1.8,1.2-4,1.5-5.9l3.2-.2c-.7,2.1-1.6,4.3-2.6,5.9l-2.1.2Z"/>
  <polygon points="216.2 62.2 219.4 62.2 219.4 73.5 225 73.5 225 76.2 216.2 76.2 216.2 62.2"/>
  <polygon points="226.9 62.2 230.1 62.2 230.1 73.5 235.7 73.5 235.7 76.2 226.9 76.2 226.9 62.2"/>
  <path d="M247,75.8c-.6.3-1.9.6-3.6.6-4.9,0-7.3-3-7.3-7s3.4-7.4,7.7-7.4,2.9.3,3.5.6l-.6,2.5c-.6-.3-1.5-.5-2.7-.5-2.5,0-4.5,1.5-4.5,4.6s1.7,4.6,4.5,4.6,2-.2,2.6-.5l.5,2.5Z"/>
</svg>